HIERARCHY
ROOT Hips
{
  OFFSET 0.0 1.00 0.0
  CHANNELS 6 Xposition Yposition Zposition Zrotation Xrotation Yrotation
  JOINT Spine
  {
    OFFSET 0.0 0.20 0.0
    CHANNELS 3 Zrotation Xrotation Yrotation
    JOINT Chest
    {
      OFFSET 0.0 0.20 0.0
      CHANNELS 3 Zrotation Xrotation Yrotation
      JOINT Neck
      {
        OFFSET 0.0 0.18 0.0
        CHANNELS 3 Zrotation Xrotation Yrotation
        JOINT Head
        {
          OFFSET 0.0 0.12 0.0
          CHANNELS 3 Zrotation Xrotation Yrotation
          End Site
          {
            OFFSET 0.0 0.22 0.0
          }
        }
      }
      JOINT RightShoulder
      {
        OFFSET 0.18 0.16 0.0
        CHANNELS 3 Zrotation Xrotation Yrotation
        JOINT RightElbow
        {
          OFFSET 0.24 0.0 0.0
          CHANNELS 3 Zrotation Xrotation Yrotation
          JOINT RightWrist
          {
            OFFSET 0.22 0.0 0.0
            CHANNELS 3 Zrotation Xrotation Yrotation
            End Site
            {
              OFFSET 0.10 0.0 0.0
            }
          }
        }
      }
      JOINT LeftShoulder
      {
        OFFSET -0.18 0.16 0.0
        CHANNELS 3 Zrotation Xrotation Yrotation
        JOINT LeftElbow
        {
          OFFSET -0.24 0.0 0.0
          CHANNELS 3 Zrotation Xrotation Yrotation
          JOINT LeftWrist
          {
            OFFSET -0.22 0.0 0.0
            CHANNELS 3 Zrotation Xrotation Yrotation
            End Site
            {
              OFFSET -0.10 0.0 0.0
            }
          }
        }
      }
    }
  }
  JOINT RightHip
  {
    OFFSET 0.10 0.0 0.0
    CHANNELS 3 Zrotation Xrotation Yrotation
    JOINT RightKnee
    {
      OFFSET 0.0 -0.42 0.0
      CHANNELS 3 Zrotation Xrotation Yrotation
      JOINT RightAnkle
      {
        OFFSET 0.0 -0.40 0.0
        CHANNELS 3 Zrotation Xrotation Yrotation
        End Site
        {
          OFFSET 0.0 -0.08 0.12
        }
      }
    }
  }
  JOINT LeftHip
  {
    OFFSET -0.10 0.0 0.0
    CHANNELS 3 Zrotation Xrotation Yrotation
    JOINT LeftKnee
    {
      OFFSET 0.0 -0.42 0.0
      CHANNELS 3 Zrotation Xrotation Yrotation
      JOINT LeftAnkle
      {
        OFFSET 0.0 -0.40 0.0
        CHANNELS 3 Zrotation Xrotation Yrotation
        End Site
        {
          OFFSET 0.0 -0.08 0.12
        }
      }
    }
  }
}
MOTION
Frames: 18
Frame Time: 0.033333
0.0024 0.0000 0.0000 0.1438 0.0000 0.0000 0.0959 0.0000 0.0000 0.0000 0.0000 0.0000 -0.0719 0.0000 0.0479 0.0000 -0.0000 0.0000 0.0959 0.0000 0.0000 0.0000 -0.0000 0.0000 0.0000 0.0000 0.0000 -0.0959 0.0000 0.0000 0.0000 -0.0000 0.0000 0.0000 0.0000 0.0000 -0.0719 0.0000 0.0000 0.0000 -0.0479 0.0000 0.0000 0.0240 0.0000 0.0719 0.0000 0.0000 0.0000 0.0479 0.0000 0.0000 -0.0240 0.0000
0.0028 0.0008 0.0000 0.1706 0.0209 0.0000 0.1137 0.0523 0.0000 0.0000 0.0314 0.0000 -0.0853 0.0157 0.0569 0.0000 -0.0105 0.0785 0.1137 0.0105 0.0000 0.0000 -0.0157 0.0000 0.0000 0.0105 0.0000 -0.1137 0.0105 0.0000 0.0000 -0.0157 0.0000 0.0000 0.0105 0.0000 -0.0853 0.0052 0.0000 0.0000 -0.0569 0.0000 0.0000 0.0284 0.0000 0.0853 0.0052 0.0000 0.0000 0.0569 0.0000 0.0000 -0.0284 0.0000
0.0033 0.0017 0.0000 0.1954 0.0416 0.0000 0.1303 0.1040 0.0000 0.0000 0.0624 0.0000 -0.0977 0.0312 0.0651 0.0000 -0.0208 0.1568 0.1303 0.0208 0.0000 0.0000 -0.0312 0.0000 0.0000 0.0208 0.0000 -0.1303 0.0208 0.0000 0.0000 -0.0312 0.0000 0.0000 0.0208 0.0000 -0.0977 0.0104 0.0000 0.0000 -0.0651 0.0000 0.0000 0.0326 0.0000 0.0977 0.0104 0.0000 0.0000 0.0651 0.0000 0.0000 -0.0326 0.0000
0.0036 0.0025 0.0000 0.2181 0.0618 0.0000 0.1454 0.1545 0.0000 0.0000 0.0927 0.0000 -0.1091 0.0464 0.0727 0.0000 -0.0309 0.2347 0.1454 0.0309 0.0000 0.0000 -0.0464 0.0000 0.0000 0.0309 0.0000 -0.1454 0.0309 0.0000 0.0000 -0.0464 0.0000 0.0000 0.0309 0.0000 -0.1091 0.0155 0.0000 0.0000 -0.0727 0.0000 0.0000 0.0364 0.0000 0.1091 0.0155 0.0000 0.0000 0.0727 0.0000 0.0000 -0.0364 0.0000
0.0040 0.0033 0.0000 0.2385 0.0813 0.0000 0.1590 0.2034 0.0000 0.0000 0.1220 0.0000 -0.1192 0.0610 0.0795 0.0000 -0.0407 0.3119 0.1590 0.0407 0.0000 0.0000 -0.0610 0.0000 0.0000 0.0407 0.0000 -0.1590 0.0407 0.0000 0.0000 -0.0610 0.0000 0.0000 0.0407 0.0000 -0.1192 0.0203 0.0000 0.0000 -0.0795 0.0000 0.0000 0.0397 0.0000 0.1192 0.0203 0.0000 0.0000 0.0795 0.0000 0.0000 -0.0397 0.0000
0.0043 0.0040 0.0000 0.2562 0.1000 0.0000 0.1708 0.2500 0.0000 0.0000 0.1500 0.0000 -0.1281 0.0750 0.0854 0.0000 -0.0500 0.3882 0.1708 0.0500 0.0000 0.0000 -0.0750 0.0000 0.0000 0.0500 0.0000 -0.1708 0.0500 0.0000 0.0000 -0.0750 0.0000 0.0000 0.0500 0.0000 -0.1281 0.0250 0.0000 0.0000 -0.0854 0.0000 0.0000 0.0427 0.0000 0.1281 0.0250 0.0000 0.0000 0.0854 0.0000 0.0000 -0.0427 0.0000
0.0045 0.0047 0.0000 0.2711 0.1176 0.0000 0.1807 0.2939 0.0000 0.0000 0.1763 0.0000 -0.1356 0.0882 0.0904 0.0000 -0.0588 0.4635 0.1807 0.0588 0.0000 0.0000 -0.0882 0.0000 0.0000 0.0588 0.0000 -0.1807 0.0588 0.0000 0.0000 -0.0882 0.0000 0.0000 0.0588 0.0000 -0.1356 0.0294 0.0000 0.0000 -0.0904 0.0000 0.0000 0.0452 0.0000 0.1356 0.0294 0.0000 0.0000 0.0904 0.0000 0.0000 -0.0452 0.0000
0.0047 0.0054 0.0000 0.2830 0.1338 0.0000 0.1887 0.3346 0.0000 0.0000 0.2007 0.0000 -0.1415 0.1004 0.0943 0.0000 -0.0669 0.5376 0.1887 0.0669 0.0000 0.0000 -0.1004 0.0000 0.0000 0.0669 0.0000 -0.1887 0.0669 0.0000 0.0000 -0.1004 0.0000 0.0000 0.0669 0.0000 -0.1415 0.0335 0.0000 0.0000 -0.0943 0.0000 0.0000 0.0472 0.0000 0.1415 0.0335 0.0000 0.0000 0.0943 0.0000 0.0000 -0.0472 0.0000
0.0049 0.0059 0.0000 0.2919 0.1486 0.0000 0.1946 0.3716 0.0000 0.0000 0.2229 0.0000 -0.1459 0.1115 0.0973 0.0000 -0.0743 0.6101 0.1946 0.0743 0.0000 0.0000 -0.1115 0.0000 0.0000 0.0743 0.0000 -0.1946 0.0743 0.0000 0.0000 -0.1115 0.0000 0.0000 0.0743 0.0000 -0.1459 0.0372 0.0000 0.0000 -0.0973 0.0000 0.0000 0.0486 0.0000 0.1459 0.0372 0.0000 0.0000 0.0973 0.0000 0.0000 -0.0486 0.0000
0.0050 0.0065 0.0000 0.2975 0.1618 0.0000 0.1984 0.4045 0.0000 0.0000 0.2427 0.0000 -0.1488 0.1214 0.0992 0.0000 -0.0809 0.6810 0.1984 0.0809 0.0000 0.0000 -0.1214 0.0000 0.0000 0.0809 0.0000 -0.1984 0.0809 0.0000 0.0000 -0.1214 0.0000 0.0000 0.0809 0.0000 -0.1488 0.0405 0.0000 0.0000 -0.0992 0.0000 0.0000 0.0496 0.0000 0.1488 0.0405 0.0000 0.0000 0.0992 0.0000 0.0000 -0.0496 0.0000
0.0050 0.0069 0.0000 0.2999 0.1732 0.0000 0.1999 0.4330 0.0000 0.0000 0.2598 0.0000 -0.1500 0.1299 0.1000 0.0000 -0.0866 0.7500 0.1999 0.0866 0.0000 0.0000 -0.1299 0.0000 0.0000 0.0866 0.0000 -0.1999 0.0866 0.0000 0.0000 -0.1299 0.0000 0.0000 0.0866 0.0000 -0.1500 0.0433 0.0000 0.0000 -0.1000 0.0000 0.0000 0.0500 0.0000 0.1500 0.0433 0.0000 0.0000 0.1000 0.0000 0.0000 -0.0500 0.0000
0.0050 0.0073 0.0000 0.2990 0.1827 0.0000 0.1993 0.4568 0.0000 0.0000 0.2741 0.0000 -0.1495 0.1370 0.0997 0.0000 -0.0914 0.8170 0.1993 0.0914 0.0000 0.0000 -0.1370 0.0000 0.0000 0.0914 0.0000 -0.1993 0.0914 0.0000 0.0000 -0.1370 0.0000 0.0000 0.0914 0.0000 -0.1495 0.0457 0.0000 0.0000 -0.0997 0.0000 0.0000 0.0498 0.0000 0.1495 0.0457 0.0000 0.0000 0.0997 0.0000 0.0000 -0.0498 0.0000
0.0049 0.0076 0.0000 0.2948 0.1902 0.0000 0.1966 0.4755 0.0000 0.0000 0.2853 0.0000 -0.1474 0.1427 0.0983 0.0000 -0.0951 0.8817 0.1966 0.0951 0.0000 0.0000 -0.1427 0.0000 0.0000 0.0951 0.0000 -0.1966 0.0951 0.0000 0.0000 -0.1427 0.0000 0.0000 0.0951 0.0000 -0.1474 0.0476 0.0000 0.0000 -0.0983 0.0000 0.0000 0.0491 0.0000 0.1474 0.0476 0.0000 0.0000 0.0983 0.0000 0.0000 -0.0491 0.0000
0.0048 0.0078 0.0000 0.2874 0.1956 0.0000 0.1916 0.4891 0.0000 0.0000 0.2934 0.0000 -0.1437 0.1467 0.0958 0.0000 -0.0978 0.9440 0.1916 0.0978 0.0000 0.0000 -0.1467 0.0000 0.0000 0.0978 0.0000 -0.1916 0.0978 0.0000 0.0000 -0.1467 0.0000 0.0000 0.0978 0.0000 -0.1437 0.0489 0.0000 0.0000 -0.0958 0.0000 0.0000 0.0479 0.0000 0.1437 0.0489 0.0000 0.0000 0.0958 0.0000 0.0000 -0.0479 0.0000
0.0046 0.0080 0.0000 0.2769 0.1989 0.0000 0.1846 0.4973 0.0000 0.0000 0.2984 0.0000 -0.1384 0.1492 0.0923 0.0000 -0.0995 1.0037 0.1846 0.0995 0.0000 0.0000 -0.1492 0.0000 0.0000 0.0995 0.0000 -0.1846 0.0995 0.0000 0.0000 -0.1492 0.0000 0.0000 0.0995 0.0000 -0.1384 0.0497 0.0000 0.0000 -0.0923 0.0000 0.0000 0.0461 0.0000 0.1384 0.0497 0.0000 0.0000 0.0923 0.0000 0.0000 -0.0461 0.0000
0.0044 0.0080 0.0000 0.2633 0.2000 0.0000 0.1755 0.5000 0.0000 0.0000 0.3000 0.0000 -0.1316 0.1500 0.0878 0.0000 -0.1000 1.0607 0.1755 0.1000 0.0000 0.0000 -0.1500 0.0000 0.0000 0.1000 0.0000 -0.1755 0.1000 0.0000 0.0000 -0.1500 0.0000 0.0000 0.1000 0.0000 -0.1316 0.0500 0.0000 0.0000 -0.0878 0.0000 0.0000 0.0439 0.0000 0.1316 0.0500 0.0000 0.0000 0.0878 0.0000 0.0000 -0.0439 0.0000
0.0041 0.0080 0.0000 0.2468 0.1989 0.0000 0.1645 0.4973 0.0000 0.0000 0.2984 0.0000 -0.1234 0.1492 0.0823 0.0000 -0.0995 1.1147 0.1645 0.0995 0.0000 0.0000 -0.1492 0.0000 0.0000 0.0995 0.0000 -0.1645 0.0995 0.0000 0.0000 -0.1492 0.0000 0.0000 0.0995 0.0000 -0.1234 0.0497 0.0000 0.0000 -0.0823 0.0000 0.0000 0.0411 0.0000 0.1234 0.0497 0.0000 0.0000 0.0823 0.0000 0.0000 -0.0411 0.0000
0.0038 0.0078 0.0000 0.2276 0.1956 0.0000 0.1517 0.4891 0.0000 0.0000 0.2934 0.0000 -0.1138 0.1467 0.0759 0.0000 -0.0978 1.1657 0.1517 0.0978 0.0000 0.0000 -0.1467 0.0000 0.0000 0.0978 0.0000 -0.1517 0.0978 0.0000 0.0000 -0.1467 0.0000 0.0000 0.0978 0.0000 -0.1138 0.0489 0.0000 0.0000 -0.0759 0.0000 0.0000 0.0379 0.0000 0.1138 0.0489 0.0000 0.0000 0.0759 0.0000 0.0000 -0.0379 0.0000
